<svg width="54" height="54" viewBox="0 0 54 54" xmlns="http://www.w3.org/2000/svg" xmlns:xlink="http://www.w3.org/1999/xlink"><defs><path id="pid-4-svgo-a" d="M0 0h54v54H0z"></path><path d="M35.469 5.41a2.699 2.699 0 012.85 2.077 1.895 1.895 0 01-.185 1.362c-.05.09-.108.171-.166.254l-.174.247-.351.493c-.472.654-.955 1.3-1.454 1.934l-.01.013a162.636 162.636 0 014.04.231l1.11.083.554.045.277.023.139.011.07.006.077.008a7.779 7.779 0 012.483.658 7.873 7.873 0 013.703 3.467c.408.76.688 1.589.826 2.44.02.105.031.212.046.319l.01.08.01.076.014.139.057.555.107 1.111c.068.741.129 1.483.182 2.226.213 2.97.314 5.96.244 8.947a112.38 112.38 0 01-.57 8.919c-.007.086-.022.2-.035.306-.012.108-.03.215-.049.321l-.027.16-.034.159c-.023.106-.045.212-.074.316a7.94 7.94 0 01-1.842 3.394 7.9 7.9 0 01-4.483 2.446c-.107.017-.214.035-.321.049l-.322.036-.554.048-1.11.09c-.74.058-1.48.108-2.219.155-1.48.092-2.96.165-4.44.22-5.921.218-11.844.148-17.762-.204-.74-.044-1.479-.095-2.218-.149l-1.11-.087-.554-.046-.277-.024-.139-.012-.147-.014a7.807 7.807 0 01-2.497-.67 7.9 7.9 0 01-3.71-3.494 7.918 7.918 0 01-.821-2.449c-.017-.106-.035-.213-.045-.32l-.018-.161-.009-.08-.006-.07-.048-.555-.089-1.112a128.68 128.68 0 01-.148-2.227c-.173-2.97-.242-5.951-.174-8.932.066-2.978.25-5.948.532-8.908a7.864 7.864 0 012.051-4.614 7.82 7.82 0 014.436-2.405c.106-.016.21-.034.317-.047l.317-.034.554-.047 1.109-.088a154.233 154.233 0 014.487-.273l-.028-.035a59.498 59.498 0 01-1.454-1.934l-.351-.493-.174-.247c-.058-.083-.117-.165-.166-.254a1.896 1.896 0 01-.184-1.363 2.699 2.699 0 012.85-2.077 1.89 1.89 0 011.237.595c.07.075.13.156.19.237l.181.242.36.486c.476.651.94 1.31 1.39 1.981a45.03 45.03 0 011.678 2.683 231.804 231.804 0 017.029-.007c.122-.212.246-.422.37-.63.418-.695.854-1.375 1.303-2.046.45-.67.914-1.33 1.39-1.981l.36-.486.181-.242c.06-.081.12-.162.19-.237a1.89 1.89 0 011.238-.595zM20.366 22.632a2 2 0 00-.196.655 60.682 60.682 0 00-.416 7.208c0 2.174.106 4.347.318 6.52l.115 1.087a2 2 0 002.912 1.547 131.76 131.76 0 006.459-3.597 119.102 119.102 0 004.685-2.937l1.133-.757a2 2 0 00.029-3.292 91.839 91.839 0 00-5.847-3.78 99.132 99.132 0 00-5.407-2.994l-1.103-.558a2 2 0 00-2.682.898z" id="pid-4-svgo-d"></path><filter x="-19.6%" y="-20.7%" width="139.2%" height="141.3%" filterUnits="objectBoundingBox" id="pid-4-svgo-c"><feOffset dy="1" in="SourceAlpha" result="shadowOffsetOuter1"></feOffset><feGaussianBlur stdDeviation="1" in="shadowOffsetOuter1" result="shadowBlurOuter1"></feGaussianBlur><feColorMatrix values="0 0 0 0 0 0 0 0 0 0 0 0 0 0 0 0 0 0 0.3 0" in="shadowBlurOuter1" result="shadowMatrixOuter1"></feColorMatrix><feOffset in="SourceAlpha" result="shadowOffsetOuter2"></feOffset><feGaussianBlur stdDeviation="3" in="shadowOffsetOuter2" result="shadowBlurOuter2"></feGaussianBlur><feColorMatrix values="0 0 0 0 0 0 0 0 0 0 0 0 0 0 0 0 0 0 0.2 0" in="shadowBlurOuter2" result="shadowMatrixOuter2"></feColorMatrix><feMerge><feMergeNode in="shadowMatrixOuter1"></feMergeNode><feMergeNode in="shadowMatrixOuter2"></feMergeNode></feMerge></filter></defs><g fill="none" fill-rule="evenodd" opacity=".812"><mask id="pid-4-svgo-b" fill="#fff"><use xlink:href="#pid-4-svgo-a"></use></mask><g mask="url(#pid-4-svgo-b)"><use fill="#000" filter="url(#pid-4-svgo-c)" xlink:href="#pid-4-svgo-d"></use><use fill="#FFF" xlink:href="#pid-4-svgo-d"></use></g></g></svg>